<svg width="582" height="121" viewBox="0 0 582 121" fill="none" xmlns="http://www.w3.org/2000/svg">
<path d="M48.3268 67.8999L0 108.952V61.887L48.3268 67.8999Z" fill="#044C72" stroke="#044C72" stroke-width="0.346429"/>
<path d="M48.5 67.5535L0 108.952L152.775 80.0249L48.5 67.5535Z" fill="#086296" stroke="#086296" stroke-width="0.346429"/>
<path d="M48.1536 67.9001L0 62.184V49.5394L53.6964 28.7537L152.775 80.0251L48.1536 67.9001Z" fill="#045A89"/>
<path d="M54.0429 28.9268L0 0V49.5393L54.0429 28.9268Z" fill="#075585"/>
<path d="M100.464 9.35357C67.6691 6.12024 1.38571 0 0 0L54.0429 28.9268L100.464 9.35357Z" fill="#00679C"/>
<path d="M126.62 0L103.409 9.87321L0 0H126.62Z" fill="#0C84C3"/>
<path d="M114.841 11.0857L126.62 0L103.236 9.87321L114.841 11.0857Z" fill="#1098CC"/>
<path d="M383.324 37.0679L316.463 0H126.274L114.322 11.4321L383.324 37.0679Z" fill="#0C84C3"/>
<path d="M53.6963 28.9269L99.9445 9.52686L383.15 37.0679L152.775 80.1983L53.6963 28.9269Z" fill="#076599"/>
<path d="M488.637 17.4946L383.15 37.0679L316.462 0H469.064L488.637 17.4946Z" fill="#0D95C9"/>
<path d="M488.464 17.4946L469.064 0H581.82L488.464 17.4946Z" fill="#12A7D2"/>
<path d="M0 120.384V108.432L581.827 0L0 120.384Z" fill="#35BED7"/>
<path d="M581.827 96.4804L392.503 39.3197L581.827 0V96.4804Z" fill="#1B5B8B"/>
</svg>
